<svg width="60" height="67" viewBox="0 0 60 67" fill="none" xmlns="http://www.w3.org/2000/svg">
<path d="M7.20976 64.6123H5.20716V56.0147C5.20716 55.3421 5.34267 54.775 5.6137 54.3132C5.88975 53.8465 6.28374 53.4926 6.79568 53.2517C7.31265 53.0108 7.92748 52.8903 8.64018 52.8903C9.05676 52.8903 9.45829 52.933 9.84475 53.0183C10.2362 53.0986 10.6378 53.204 11.0493 53.3345L10.7557 54.9456C10.4897 54.8603 10.1986 54.78 9.8824 54.7047C9.57121 54.6294 9.20232 54.5918 8.7757 54.5918C8.2487 54.5918 7.8547 54.7122 7.59371 54.9532C7.33774 55.1941 7.20976 55.5479 7.20976 56.0147V64.6123ZM8.83593 56.4664V57.8968H3.98V56.4664H8.83593ZM11.9829 56.4664V64.6123H9.9878V56.4664H11.9829ZM15.4686 56.4664L16.9216 59.0562L18.3972 56.4664H20.5579L18.1638 60.4565L20.6558 64.6123H18.4951L16.9367 61.8945L15.3707 64.6123H13.21L15.6944 60.4565L13.3154 56.4664H15.4686Z" fill="#5C6BC0"/>
<path d="M23.6898 58.1377V64.6123H21.7022V56.4664H23.5769L23.6898 58.1377ZM23.3962 60.2457H22.7864C22.7864 59.6786 22.8541 59.1566 22.9896 58.6798C23.1302 58.203 23.3359 57.7889 23.607 57.4376C23.878 57.0812 24.2118 56.8052 24.6083 56.6094C25.0098 56.4137 25.474 56.3158 26.001 56.3158C26.3674 56.3158 26.7037 56.371 27.0099 56.4815C27.316 56.5869 27.5795 56.755 27.8004 56.9859C28.0262 57.2117 28.1994 57.5079 28.3198 57.8742C28.4403 58.2356 28.5005 58.6698 28.5005 59.1767V64.6123H26.513V59.38C26.513 58.9985 26.4578 58.6999 26.3474 58.4841C26.242 58.2682 26.0889 58.1177 25.8881 58.0323C25.6874 57.942 25.4464 57.8968 25.1654 57.8968C24.8542 57.8968 24.5857 57.9596 24.3598 58.085C24.139 58.2055 23.9558 58.3736 23.8102 58.5895C23.6697 58.8053 23.5643 59.0537 23.494 59.3348C23.4288 59.6158 23.3962 59.9195 23.3962 60.2457ZM28.35 59.8768L27.5293 60.0274C27.5344 59.5155 27.6046 59.0361 27.7401 58.5895C27.8757 58.1377 28.0739 57.7437 28.3349 57.4075C28.6009 57.0662 28.9297 56.8002 29.3211 56.6094C29.7177 56.4137 30.1744 56.3158 30.6913 56.3158C31.0929 56.3158 31.4542 56.3735 31.7755 56.489C32.1017 56.5994 32.3803 56.7776 32.6111 57.0235C32.842 57.2644 33.0177 57.5781 33.1381 57.9646C33.2636 58.351 33.3263 58.8228 33.3263 59.38V64.6123H31.3237V59.3724C31.3237 58.9759 31.2685 58.6723 31.1581 58.4615C31.0527 58.2507 30.8996 58.1051 30.6989 58.0248C30.4981 57.9395 30.2622 57.8968 29.9912 57.8968C29.7151 57.8968 29.4742 57.9495 29.2684 58.0549C29.0677 58.1553 28.897 58.2958 28.7565 58.4765C28.621 58.6572 28.5181 58.868 28.4478 59.1089C28.3826 59.3448 28.35 59.6008 28.35 59.8768ZM39.5976 62.8807V59.124C39.5976 58.8479 39.55 58.6095 39.4546 58.4088C39.3592 58.208 39.2137 58.0524 39.0179 57.942C38.8222 57.8316 38.5737 57.7764 38.2726 57.7764C38.0066 57.7764 37.7732 57.8215 37.5724 57.9119C37.3767 58.0022 37.2261 58.1302 37.1207 58.2958C37.0153 58.4564 36.9626 58.6422 36.9626 58.853H34.9676C34.9676 58.5167 35.0479 58.198 35.2085 57.8968C35.3691 57.5907 35.5975 57.3196 35.8936 57.0837C36.1947 56.8428 36.5536 56.6546 36.9702 56.5191C37.3918 56.3836 37.8636 56.3158 38.3855 56.3158C39.0029 56.3158 39.5525 56.4212 40.0343 56.632C40.5211 56.8378 40.9026 57.149 41.1786 57.5656C41.4597 57.9822 41.6002 58.5066 41.6002 59.139V62.6925C41.6002 63.0991 41.6253 63.4479 41.6755 63.739C41.7307 64.0251 41.811 64.2735 41.9164 64.4843V64.6123H39.8912C39.7959 64.4065 39.7231 64.1455 39.6729 63.8293C39.6227 63.5081 39.5976 63.1919 39.5976 62.8807ZM39.8762 59.651L39.8912 60.833H38.634C38.3228 60.833 38.0493 60.8656 37.8134 60.9308C37.5775 60.9911 37.3842 61.0814 37.2337 61.2019C37.0831 61.3173 36.9702 61.4578 36.8949 61.6235C36.8196 61.7841 36.782 61.9673 36.782 62.1731C36.782 62.3738 36.8271 62.5545 36.9175 62.7151C37.0128 62.8757 37.1483 63.0037 37.324 63.0991C37.5047 63.1894 37.7155 63.2346 37.9564 63.2346C38.3077 63.2346 38.6139 63.1643 38.8749 63.0238C39.1359 62.8782 39.3392 62.7026 39.4847 62.4968C39.6303 62.291 39.7081 62.0953 39.7181 61.9096L40.2903 62.7678C40.22 62.9736 40.1146 63.1919 39.9741 63.4228C39.8335 63.6537 39.6528 63.8695 39.432 64.0702C39.2112 64.271 38.9452 64.4366 38.634 64.5671C38.3228 64.6976 37.9614 64.7629 37.5499 64.7629C37.0229 64.7629 36.5511 64.6575 36.1345 64.4467C35.7179 64.2359 35.3892 63.9473 35.1483 63.5809C34.9073 63.2145 34.7869 62.7979 34.7869 62.3312C34.7869 61.8995 34.8672 61.5181 35.0278 61.1868C35.1884 60.8556 35.4268 60.577 35.743 60.3511C36.0592 60.1203 36.4507 59.9471 36.9175 59.8317C37.3893 59.7112 37.9288 59.651 38.5361 59.651H39.8762ZM47.2467 56.4664V57.8968H42.5789V56.4664H47.2467ZM43.8287 54.4638H45.8238V62.2634C45.8238 62.5043 45.8564 62.69 45.9216 62.8205C45.9869 62.951 46.0847 63.0388 46.2152 63.084C46.3457 63.1292 46.5013 63.1518 46.682 63.1518C46.8125 63.1518 46.933 63.1442 47.0434 63.1292C47.1538 63.1141 47.2467 63.0991 47.3219 63.084L47.3295 64.5747C47.1638 64.6299 46.9756 64.675 46.7648 64.7102C46.559 64.7453 46.3257 64.7629 46.0647 64.7629C45.618 64.7629 45.2265 64.6876 44.8902 64.537C44.5539 64.3814 44.2929 64.133 44.1072 63.7917C43.9215 63.4454 43.8287 62.9886 43.8287 62.4215V54.4638ZM52.2306 64.7629C51.6132 64.7629 51.0586 64.6625 50.5667 64.4617C50.0749 64.261 49.6558 63.9824 49.3095 63.6261C48.9682 63.2647 48.7047 62.8456 48.519 62.3688C48.3383 61.887 48.248 61.37 48.248 60.8179V60.5168C48.248 59.8894 48.3383 59.3197 48.519 58.8078C48.6997 58.2908 48.9556 57.8466 49.2869 57.4752C49.6182 57.1038 50.0147 56.8177 50.4764 56.617C50.9382 56.4162 51.4476 56.3158 52.0047 56.3158C52.5819 56.3158 53.0913 56.4137 53.533 56.6094C53.9747 56.8002 54.3436 57.0712 54.6397 57.4225C54.9358 57.7739 55.1592 58.1955 55.3097 58.6873C55.4603 59.1742 55.5356 59.7137 55.5356 60.306V61.1416H49.1514V59.7714H53.5782V59.6209C53.5681 59.3047 53.5079 59.0161 53.3975 58.7551C53.2871 58.4891 53.1164 58.2783 52.8855 58.1227C52.6547 57.9621 52.356 57.8818 51.9896 57.8818C51.6935 57.8818 51.435 57.947 51.2142 58.0775C50.9984 58.203 50.8177 58.3837 50.6721 58.6196C50.5316 58.8504 50.4262 59.1265 50.3559 59.4477C50.2857 59.7689 50.2505 60.1253 50.2505 60.5168V60.8179C50.2505 61.1592 50.2957 61.4754 50.3861 61.7665C50.4814 62.0576 50.6194 62.3111 50.8001 62.5269C50.9858 62.7377 51.2067 62.9033 51.4626 63.0238C51.7236 63.1392 52.0198 63.1969 52.351 63.1969C52.7676 63.1969 53.144 63.1166 53.4803 62.956C53.8216 62.7904 54.1177 62.547 54.3687 62.2258L55.37 63.2647C55.1993 63.5156 54.9684 63.7566 54.6773 63.9874C54.3913 64.2183 54.0449 64.4065 53.6384 64.5521C53.2319 64.6926 52.7626 64.7629 52.2306 64.7629Z" fill="#8C9EFF"/>
<ellipse cx="29.9773" cy="28.0096" rx="21.7361" ry="21.7361" fill="#5C6BC0"/>
<ellipse cx="29.9243" cy="27.9624" rx="12.7407" ry="12.7407" fill="white"/>
<rect x="13.3618" y="24.459" width="33.2321" height="7.4321" rx="2.12345" fill="white"/>
<rect x="18.8818" y="40.2871" width="33.2321" height="7.4321" rx="2.12345" transform="rotate(-60 18.8818 40.2871)" fill="white"/>
<rect x="34.7559" y="43.79" width="33.2321" height="7.4321" rx="2.12345" transform="rotate(-120 34.7559 43.79)" fill="white"/>
<ellipse cx="30.03" cy="28.1755" rx="7.32587" ry="7.32587" fill="#5C6BC0"/>
</svg>
