<svg width="56" height="63" viewBox="0 0 56 63" fill="none" xmlns="http://www.w3.org/2000/svg">
<path d="M9.09895 58.8899H7.44237V51.7778C7.44237 51.2215 7.55447 50.7523 7.77867 50.3704C8.00702 49.9842 8.33294 49.6916 8.75643 49.4923C9.18407 49.293 9.69266 49.1934 10.2823 49.1934C10.6268 49.1934 10.959 49.2286 11.2787 49.2992C11.6026 49.3656 11.9347 49.4528 12.2752 49.5607L12.0322 50.8935C11.8122 50.8229 11.5714 50.7565 11.3098 50.6942C11.0524 50.6319 10.7472 50.6007 10.3943 50.6007C9.95838 50.6007 9.63247 50.7004 9.41657 50.8997C9.20483 51.099 9.09895 51.3917 9.09895 51.7778V58.8899ZM10.4441 52.1515V53.3348H6.42725V52.1515H10.4441ZM13.0474 52.1515V58.8899H11.397V52.1515H13.0474ZM15.9308 52.1515L17.1328 54.2938L18.3535 52.1515H20.1408L18.1603 55.4522L20.2218 58.8899H18.4344L17.1452 56.6418L15.8498 58.8899H14.0625L16.1176 55.4522L14.1497 52.1515H15.9308Z" fill="#5C6BC0"/>
<path d="M22.731 53.5343V58.8901H21.0869V52.1517H22.6377L22.731 53.5343ZM22.4882 55.278H21.9837C21.9837 54.8089 22.0398 54.3771 22.1518 53.9827C22.2681 53.5883 22.4384 53.2457 22.6626 52.9551C22.8868 52.6603 23.1628 52.432 23.4908 52.27C23.8229 52.1082 24.2071 52.0271 24.6429 52.0271C24.946 52.0271 25.2242 52.0728 25.4775 52.1642C25.7307 52.2513 25.9488 52.3904 26.1314 52.5815C26.3182 52.7682 26.4614 53.0132 26.5611 53.3162C26.6607 53.6152 26.7105 53.9744 26.7105 54.3937V58.8901H25.0664V54.5618C25.0664 54.2463 25.0208 53.9993 24.9295 53.8207C24.8422 53.6422 24.7157 53.5176 24.5495 53.4471C24.3834 53.3723 24.1842 53.335 23.9517 53.335C23.6943 53.335 23.4721 53.3869 23.2854 53.4906C23.1026 53.5903 22.9511 53.7294 22.8307 53.9079C22.7144 54.0865 22.6272 54.292 22.5691 54.5245C22.5151 54.757 22.4882 55.0082 22.4882 55.278ZM26.586 54.9729L25.9072 55.0975C25.9114 54.674 25.9695 54.2774 26.0816 53.9079C26.1937 53.5343 26.3577 53.2083 26.5736 52.9302C26.7936 52.6478 27.0656 52.4278 27.3894 52.27C27.7174 52.1082 28.0952 52.0271 28.5229 52.0271C28.855 52.0271 29.1539 52.0749 29.4197 52.1703C29.6895 52.2617 29.92 52.4091 30.111 52.6126C30.3019 52.8118 30.4472 53.0713 30.5468 53.391C30.6507 53.7107 30.7026 54.101 30.7026 54.5618V58.8901H29.046V54.5556C29.046 54.2276 29.0004 53.9765 28.909 53.8021C28.8218 53.6277 28.6951 53.5073 28.529 53.4408C28.363 53.3703 28.1679 53.335 27.9437 53.335C27.7153 53.335 27.5161 53.3786 27.3459 53.4657C27.1798 53.5488 27.0386 53.665 26.9224 53.8145C26.8102 53.9639 26.7251 54.1383 26.667 54.3376C26.613 54.5328 26.586 54.7445 26.586 54.9729ZM35.8903 57.4578V54.3501C35.8903 54.1218 35.8509 53.9246 35.772 53.7585C35.6931 53.5924 35.5727 53.4637 35.4108 53.3723C35.2488 53.281 35.0434 53.2353 34.7943 53.2353C34.5741 53.2353 34.3811 53.2727 34.215 53.3474C34.0531 53.4222 33.9286 53.5281 33.8414 53.665C33.7542 53.7979 33.7105 53.9516 33.7105 54.1259H32.0602C32.0602 53.8477 32.1267 53.5841 32.2595 53.335C32.3923 53.0817 32.5813 52.8575 32.8263 52.6624C33.0754 52.4631 33.3722 52.3074 33.7168 52.1952C34.0656 52.0832 34.4559 52.0271 34.8876 52.0271C35.3983 52.0271 35.8529 52.1143 36.2515 52.2887C36.6542 52.4589 36.9698 52.7164 37.1981 53.061C37.4306 53.4055 37.5468 53.8394 37.5468 54.3625V57.302C37.5468 57.6384 37.5677 57.9269 37.6092 58.1677C37.6548 58.4044 37.7212 58.6099 37.8085 58.7843V58.8901H36.1332C36.0543 58.7199 35.9941 58.504 35.9525 58.2424C35.9111 57.9767 35.8903 57.7151 35.8903 57.4578ZM36.1207 54.786L36.1332 55.7638H35.0932C34.8357 55.7638 34.6094 55.7908 34.4143 55.8448C34.2192 55.8946 34.0593 55.9694 33.9347 56.069C33.8102 56.1645 33.7168 56.2807 33.6545 56.4178C33.5923 56.5506 33.5611 56.7021 33.5611 56.8723C33.5611 57.0384 33.5985 57.1879 33.6733 57.3207C33.7521 57.4536 33.8642 57.5595 34.0095 57.6384C34.1589 57.7131 34.3333 57.7504 34.5326 57.7504C34.8233 57.7504 35.0766 57.6923 35.2925 57.576C35.5083 57.4557 35.6765 57.3104 35.7969 57.1402C35.9173 56.9699 35.9816 56.808 35.99 56.6543L36.4633 57.3644C36.4051 57.5346 36.3179 57.7151 36.2016 57.9061C36.0855 58.0972 35.936 58.2756 35.7532 58.4417C35.5706 58.6078 35.3506 58.7449 35.0932 58.8528C34.8357 58.9607 34.5368 59.0147 34.1964 59.0147C33.7604 59.0147 33.3701 58.9275 33.0256 58.7531C32.6809 58.5787 32.409 58.34 32.2097 58.037C32.0104 57.7339 31.9108 57.3893 31.9108 57.0031C31.9108 56.6461 31.9772 56.3305 32.11 56.0565C32.2429 55.7824 32.4401 55.5521 32.7017 55.3652C32.9632 55.1742 33.287 55.031 33.6733 54.9355C34.0635 54.8358 34.5098 54.786 35.0122 54.786H36.1207ZM42.2177 52.1517V53.335H38.3565V52.1517H42.2177ZM39.3902 50.4951H41.0407V56.9471C41.0407 57.1464 41.0677 57.3 41.1217 57.4079C41.1756 57.5158 41.2566 57.5886 41.3645 57.6259C41.4724 57.6633 41.6012 57.682 41.7506 57.682C41.8585 57.682 41.9582 57.6757 42.0495 57.6633C42.1409 57.6508 42.2178 57.6384 42.2799 57.6259L42.2862 58.859C42.1492 58.9047 41.9935 58.9421 41.8192 58.971C41.6489 59.0001 41.4559 59.0147 41.2399 59.0147C40.8705 59.0147 40.5466 58.9524 40.2684 58.8279C39.9902 58.6991 39.7744 58.4937 39.6207 58.2114C39.4671 57.9248 39.3902 57.547 39.3902 57.0778V50.4951ZM46.3404 59.0147C45.8299 59.0147 45.371 58.9317 44.9641 58.7656C44.5573 58.5995 44.2106 58.3691 43.9241 58.0743C43.6418 57.7753 43.4238 57.4287 43.2702 57.0343C43.1207 56.6357 43.046 56.208 43.046 55.7513V55.5022C43.046 54.9833 43.1207 54.512 43.2702 54.0885C43.4197 53.6609 43.6314 53.2934 43.9054 52.9862C44.1794 52.679 44.5075 52.4424 44.8894 52.2763C45.2713 52.1101 45.6927 52.0271 46.1537 52.0271C46.6311 52.0271 47.0525 52.1082 47.4179 52.27C47.7833 52.4278 48.0884 52.652 48.3333 52.9426C48.5783 53.2332 48.7631 53.582 48.8876 53.9888C49.0122 54.3916 49.0745 54.8379 49.0745 55.3279V56.0192H43.7933V54.8856H47.4552V54.7611C47.447 54.4996 47.3972 54.2609 47.3058 54.0449C47.2144 53.8249 47.0733 53.6505 46.8823 53.5218C46.6913 53.389 46.4443 53.3225 46.1411 53.3225C45.8962 53.3225 45.6824 53.3765 45.4997 53.4844C45.3212 53.5883 45.1717 53.7377 45.0513 53.9328C44.935 54.1239 44.8479 54.3521 44.7898 54.6179C44.7317 54.8836 44.7026 55.1784 44.7026 55.5022V55.7513C44.7026 56.0336 44.7399 56.2952 44.8147 56.536C44.8936 56.7769 45.0078 56.9865 45.1573 57.1651C45.3108 57.3395 45.4934 57.4764 45.7053 57.576C45.9211 57.6716 46.166 57.7193 46.4401 57.7193C46.7847 57.7193 47.0961 57.6529 47.3743 57.52C47.6566 57.383 47.9016 57.1816 48.1091 56.916L48.9375 57.7753C48.7963 57.983 48.6053 58.1823 48.3645 58.3732C48.1278 58.5642 47.8414 58.7199 47.5051 58.8403C47.1688 58.9566 46.7806 59.0147 46.3404 59.0147Z" fill="#8C9EFF"/>
<path d="M28.0005 48.2276C40.3827 48.2276 50.4204 38.1898 50.4204 25.8076C50.4204 13.4254 40.3827 3.3877 28.0005 3.3877C15.6183 3.3877 5.58057 13.4254 5.58057 25.8076C5.58057 38.1898 15.6183 48.2276 28.0005 48.2276Z" fill="#5C6BC0"/>
<path d="M27.9453 38.9023C35.2032 38.9023 41.0868 33.0186 41.0868 25.7607C41.0868 18.5028 35.2032 12.6191 27.9453 12.6191C20.6874 12.6191 14.8037 18.5028 14.8037 25.7607C14.8037 33.0186 20.6874 38.9023 27.9453 38.9023Z" fill="white"/>
<path d="M42.9487 22.1484H13.0516C11.8419 22.1484 10.8613 23.129 10.8613 24.3387V27.6241C10.8613 28.8337 11.8419 29.8143 13.0516 29.8143H42.9487C44.1583 29.8143 45.1389 28.8337 45.1389 27.6241V24.3387C45.1389 23.129 44.1583 22.1484 42.9487 22.1484Z" fill="white"/>
<path d="M32.5993 10.6842L17.6508 36.5758C17.046 37.6234 17.4049 38.963 18.4525 39.5678L21.2977 41.2105C22.3453 41.8153 23.6848 41.4564 24.2897 40.4088L39.2382 14.5172C39.843 13.4696 39.4841 12.1301 38.4365 11.5252L35.5913 9.88253C34.5437 9.27771 33.2041 9.63663 32.5993 10.6842Z" fill="white"/>
<path d="M16.8846 14.2995L31.8331 40.1911C32.4379 41.2387 33.7775 41.5976 34.825 40.9928L37.6703 39.3501C38.7179 38.7452 39.0768 37.4057 38.472 36.3581L23.5234 10.4665C22.9186 9.41891 21.5791 9.05999 20.5315 9.66481L17.6863 11.3075C16.6387 11.9123 16.2797 13.2519 16.8846 14.2995Z" fill="white"/>
<path d="M28.0549 33.5376C32.2282 33.5376 35.6113 30.1545 35.6113 25.9812C35.6113 21.8079 32.2282 18.4248 28.0549 18.4248C23.8817 18.4248 20.4985 21.8079 20.4985 25.9812C20.4985 30.1545 23.8817 33.5376 28.0549 33.5376Z" fill="#5C6BC0"/>
</svg>
